<svg width="104" height="24" viewBox="0 0 104 24" fill="none" xmlns="http://www.w3.org/2000/svg">
<g opacity="0.16">
<path d="M61.0768 5.1309C60.2529 5.49228 59.3751 5.73182 58.4599 5.84812C59.4014 5.28597 60.12 4.4026 60.4578 3.33784C59.58 3.86122 58.6108 4.23091 57.5779 4.43722C56.7443 3.54969 55.5564 3 54.2604 3C51.7459 3 49.7217 5.0409 49.7217 7.54287C49.7217 7.90287 49.7521 8.24902 49.8269 8.57855C46.0511 8.3944 42.71 6.58473 40.4656 3.82799C40.0738 4.50783 39.8439 5.28597 39.8439 6.12366C39.8439 7.69656 40.6539 9.09086 41.8613 9.89808C41.1316 9.88423 40.4158 9.67239 39.8093 9.3387C39.8093 9.35255 39.8093 9.37055 39.8093 9.38855C39.8093 11.5956 41.3836 13.4288 43.448 13.8511C43.0783 13.9522 42.6754 14.0006 42.2573 14.0006C41.9665 14.0006 41.673 13.984 41.3974 13.9231C41.9859 15.7217 43.6557 17.044 45.6412 17.0869C44.096 18.2957 42.134 19.024 40.0101 19.024C39.6376 19.024 39.2804 19.0074 38.9232 18.9617C40.935 20.259 43.3193 20.9998 45.8905 20.9998C54.2479 20.9998 58.8171 14.0768 58.8171 8.07594C58.8171 7.87518 58.8102 7.68133 58.8005 7.48887C59.7019 6.84919 60.4592 6.05027 61.0768 5.1309Z" fill="black"/>
<path d="M15.5378 5.18705H17.4V1.94345C17.0787 1.89925 15.9738 1.7998 14.687 1.7998C12.0021 1.7998 10.1629 3.48875 10.1629 6.59296V9.44981H7.20001V13.0759H10.1629V22.1998H13.7955V13.0768H16.6385L17.0898 9.45066H13.7946V6.95251C13.7955 5.90445 14.0776 5.18705 15.5378 5.18705Z" fill="black"/>
<path d="M92 8.3999C90.0149 8.3999 88.4 10.0148 88.4 11.9999C88.4 13.985 90.0149 15.5999 92 15.5999C93.9852 15.5999 95.6 13.985 95.6 11.9999C95.6 10.0148 93.9852 8.3999 92 8.3999Z" fill="black"/>
<path fill-rule="evenodd" clip-rule="evenodd" d="M82.4 17.6106V6.3892C82.4 4.18596 84.1861 2.3999 86.3893 2.3999H97.6107C99.814 2.3999 101.6 4.18596 101.6 6.3892V17.6106C101.6 19.8138 99.814 21.5999 97.6107 21.5999H86.3893C84.1861 21.5999 82.4 19.8138 82.4 17.6106ZM86.5599 9.96611C84.926 14.7018 89.2981 19.0739 94.0338 17.44C95.63 16.8894 96.8896 15.6299 97.4401 14.0338C99.074 9.29803 94.7019 4.92588 89.9661 6.55982C88.37 7.11037 87.1105 8.37002 86.5599 9.96611ZM98 6.59993C98.6628 6.59993 99.2 6.06268 99.2 5.39993C99.2 4.73719 98.6628 4.19993 98 4.19993C97.3373 4.19993 96.8 4.73719 96.8 5.39993C96.8 6.06268 97.3373 6.59993 98 6.59993Z" fill="black"/>
</g>
</svg>
