<svg width="96" height="26" viewBox="0 0 96 26" fill="none" xmlns="http://www.w3.org/2000/svg">
<g opacity="0.16">
<path d="M48.0025 2H47.9975C42.4838 2 38 6.485 38 12C38 14.1875 38.705 16.215 39.9037 17.8612L38.6575 21.5763L42.5013 20.3475C44.0825 21.395 45.9688 22 48.0025 22C53.5162 22 58 17.5138 58 12C58 6.48625 53.5162 2 48.0025 2ZM53.8212 16.1213C53.58 16.8025 52.6225 17.3675 51.8587 17.5325C51.3363 17.6437 50.6537 17.7325 48.3562 16.78C45.4175 15.5625 43.525 12.5763 43.3775 12.3825C43.2362 12.1887 42.19 10.8013 42.19 9.36625C42.19 7.93125 42.9188 7.2325 43.2125 6.9325C43.4538 6.68625 43.8525 6.57375 44.235 6.57375C44.3587 6.57375 44.47 6.58 44.57 6.585C44.8637 6.5975 45.0113 6.615 45.205 7.07875C45.4462 7.66 46.0337 9.095 46.1038 9.2425C46.175 9.39 46.2463 9.59 46.1462 9.78375C46.0525 9.98375 45.97 10.0725 45.8225 10.2425C45.675 10.4125 45.535 10.5425 45.3875 10.725C45.2525 10.8837 45.1 11.0538 45.27 11.3475C45.44 11.635 46.0275 12.5937 46.8925 13.3637C48.0087 14.3575 48.9137 14.675 49.2375 14.81C49.4787 14.91 49.7662 14.8863 49.9425 14.6988C50.1663 14.4575 50.4425 14.0575 50.7238 13.6638C50.9237 13.3813 51.1763 13.3462 51.4412 13.4462C51.7113 13.54 53.14 14.2462 53.4338 14.3925C53.7275 14.54 53.9212 14.61 53.9925 14.7338C54.0625 14.8575 54.0625 15.4388 53.8212 16.1213Z" fill="black"/>
</g>
<g opacity="0.16">
<path d="M81.6326 16.8632L81.2687 21.8888C81.7894 21.8888 82.0149 21.6692 82.2853 21.4055L84.7264 19.115L89.7847 22.7519C90.7124 23.2595 91.366 22.9922 91.6163 21.914L94.9365 6.63926L94.9374 6.63836C95.2317 5.29196 94.4415 4.76547 93.5377 5.09576L74.0214 12.4316C72.6894 12.9392 72.7096 13.6682 73.7949 13.9985L78.7845 15.5222L90.3742 8.40235C90.9196 8.04775 91.4155 8.24395 91.0076 8.59855L81.6326 16.8632Z" fill="black"/>
</g>
<g opacity="0.16">
<path d="M15.5378 5.18705H17.4V1.94345C17.0787 1.89925 15.9738 1.7998 14.687 1.7998C12.0021 1.7998 10.1629 3.48875 10.1629 6.59296V9.44981H7.2V13.0759H10.1629V22.1998H13.7955V13.0768H16.6385L17.0898 9.45066H13.7946V6.95251C13.7955 5.90445 14.0776 5.18705 15.5378 5.18705Z" fill="black"/>
</g>
</svg>
